<?xml version="1.0" encoding="UTF-8"?>
<svg version="1.1" xmlns="http://www.w3.org/2000/svg" width="66" height="66">
<path d="M0 0 C1.07121094 -0.00945648 2.14242188 -0.01891296 3.24609375 -0.02865601 C4.98052734 -0.01954697 4.98052734 -0.01954697 6.75 -0.01025391 C7.93722656 -0.01312408 9.12445312 -0.01599426 10.34765625 -0.01895142 C12.85937985 -0.02099417 15.37111928 -0.01544963 17.8828125 -0.00292969 C21.73473572 0.01311999 25.58560955 -0.00277228 29.4375 -0.02197266 C31.87500232 -0.01999026 34.31250399 -0.01614667 36.75 -0.01025391 C37.90628906 -0.0163266 39.06257813 -0.02239929 40.25390625 -0.02865601 C41.32511719 -0.01919952 42.39632812 -0.00974304 43.5 0 C44.91539063 0.00358017 44.91539063 0.00358017 46.359375 0.00723267 C48.75 0.38818359 48.75 0.38818359 50.5528717 1.64169312 C52.04681901 3.82121285 52.13548953 5.08863458 52.15405273 7.72021484 C52.16673691 8.59121826 52.17942108 9.46222168 52.19248962 10.35961914 C52.18955399 11.29717041 52.18661835 12.23472168 52.18359375 13.20068359 C52.1888356 14.16594971 52.19407745 15.13121582 52.19947815 16.12573242 C52.20590192 18.16665688 52.20455677 20.20761834 52.19604492 22.24853516 C52.18753185 25.37648183 52.21629665 28.5026048 52.24804688 31.63037109 C52.24965884 33.61214138 52.24908146 35.59391491 52.24609375 37.57568359 C52.26294472 38.9820105 52.26294472 38.9820105 52.28013611 40.41674805 C52.21091357 46.84392883 52.21091357 46.84392883 49.97583008 49.4831543 C47.66161892 50.42411961 46.12728374 50.73766732 43.640625 50.68115234 C42.88652344 50.67148437 42.13242187 50.66181641 41.35546875 50.65185547 C40.57816406 50.62671875 39.80085938 50.60158203 39 50.57568359 C38.20722656 50.56214844 37.41445313 50.54861328 36.59765625 50.53466797 C34.64814436 50.49943583 32.69898374 50.4456318 30.75 50.38818359 C32.00541557 52.89901473 33.25063488 53.25943805 35.75 54.38818359 C35.42 55.70818359 35.09 57.02818359 34.75 58.38818359 C26.17 58.38818359 17.59 58.38818359 8.75 58.38818359 C8.42 57.06818359 8.09 55.74818359 7.75 54.38818359 C8.7090625 53.95505859 8.7090625 53.95505859 9.6875 53.51318359 C11.90206079 52.55994908 11.90206079 52.55994908 12.75 50.38818359 C11.56921875 50.42298828 10.3884375 50.45779297 9.171875 50.49365234 C7.61459758 50.52179591 6.05730475 50.54909546 4.5 50.57568359 C3.33404297 50.61338867 3.33404297 50.61338867 2.14453125 50.65185547 C1.01337891 50.66635742 1.01337891 50.66635742 -0.140625 50.68115234 C-1.17751465 50.70471802 -1.17751465 50.70471802 -2.23535156 50.72875977 C-5.20374674 50.22695278 -6.27263462 49.72309103 -8.25 47.38818359 C-8.85502593 44.12249683 -8.78578636 40.88829961 -8.74609375 37.57568359 C-8.74754898 36.61041748 -8.74900421 35.64515137 -8.75050354 34.65063477 C-8.74884343 32.60966982 -8.73726968 30.5686925 -8.71655273 28.52783203 C-8.68760947 25.40001364 -8.69593917 22.2738906 -8.70898438 19.14599609 C-8.70274676 17.164217 -8.69435564 15.18244328 -8.68359375 13.20068359 C-8.68652939 12.26313232 -8.68946503 11.32558105 -8.69248962 10.35961914 C-8.67980545 9.48861572 -8.66712128 8.6176123 -8.65405273 7.72021484 C-8.64864975 6.95427002 -8.64324677 6.1883252 -8.63768005 5.39916992 C-7.68566994 0.46087274 -4.5243971 0.01144427 0 0 Z " fill="#7F7FF7" transform="translate(11.25,3.61181640625)"/>
<path d="M0 0 C0.91765137 -0.00315216 1.83530273 -0.00630432 2.78076172 -0.009552 C4.27760498 -0.00651566 4.27760498 -0.00651566 5.8046875 -0.00341797 C6.82191895 -0.00437469 7.83915039 -0.00533142 8.88720703 -0.00631714 C11.04264386 -0.00699908 13.19808272 -0.00514382 15.35351562 -0.00097656 C18.66541121 0.00437148 21.97717117 -0.0009211 25.2890625 -0.00732422 C27.37760447 -0.00666344 29.46614635 -0.00538228 31.5546875 -0.00341797 C32.55258301 -0.0054422 33.55047852 -0.00746643 34.57861328 -0.009552 C35.49626465 -0.00639984 36.41391602 -0.00324768 37.359375 0 C38.17132324 0.00079559 38.98327148 0.00159119 39.81982422 0.00241089 C41.6796875 0.12939453 41.6796875 0.12939453 42.6796875 1.12939453 C42.7798968 3.40887245 42.81050053 5.69146588 42.8125 7.97314453 C42.81345673 8.6574353 42.81441345 9.34172607 42.81539917 10.04675293 C42.8160808 11.4960133 42.81422773 12.94527671 42.81005859 14.39453125 C42.80471002 16.62002381 42.8100041 18.84531454 42.81640625 21.07080078 C42.81574547 22.47574915 42.8144643 23.88069738 42.8125 25.28564453 C42.81137207 26.57277344 42.81024414 27.85990234 42.80908203 29.18603516 C42.6796875 32.12939453 42.6796875 32.12939453 41.6796875 33.12939453 C40.24228397 33.2275344 38.80012423 33.25737733 37.359375 33.25878906 C36.44172363 33.26194122 35.52407227 33.26509338 34.57861328 33.26834106 C33.58071777 33.26631683 32.58282227 33.2642926 31.5546875 33.26220703 C30.53745605 33.26316376 29.52022461 33.26412048 28.47216797 33.2651062 C26.31673114 33.26578814 24.16129228 33.26393288 22.00585938 33.25976562 C18.69396379 33.25441758 15.38220383 33.25971016 12.0703125 33.26611328 C9.98177053 33.2654525 7.89322865 33.26417135 5.8046875 33.26220703 C4.30784424 33.26524338 4.30784424 33.26524338 2.78076172 33.26834106 C1.86311035 33.2651889 0.94545898 33.26203674 0 33.25878906 C-0.81194824 33.25799347 -1.62389648 33.25719788 -2.46044922 33.25637817 C-4.3203125 33.12939453 -4.3203125 33.12939453 -5.3203125 32.12939453 C-5.4205218 29.84991662 -5.45112553 27.56732318 -5.453125 25.28564453 C-5.45408173 24.60135376 -5.45503845 23.91706299 -5.45602417 23.21203613 C-5.4567058 21.76277576 -5.45485273 20.31351235 -5.45068359 18.86425781 C-5.44533502 16.63876525 -5.4506291 14.41347452 -5.45703125 12.18798828 C-5.45637047 10.78303992 -5.4550893 9.37809168 -5.453125 7.97314453 C-5.45199707 6.68601562 -5.45086914 5.39888672 -5.44970703 4.07275391 C-5.25054326 -0.45765833 -4.11635723 0.00403344 0 0 Z " fill="#FDFCFD" transform="translate(14.3203125,9.87060546875)"/>
<path d="M0 0 C5.28 0 10.56 0 16 0 C17.00911458 2.05078125 18.01822917 4.1015625 19.02734375 6.15234375 C19.86371827 7.96249027 19.86371827 7.96249027 21 9 C21.04080783 10.99958364 21.04254356 13.00045254 21 15 C20.01 15.33 19.02 15.66 18 16 C17.26676204 18.01508358 17.26676204 18.01508358 17 20 C15.68 19.67 14.36 19.34 13 19 C13 18.01 13 17.02 13 16 C9.7 16 6.4 16 3 16 C2.67 17.32 2.34 18.64 2 20 C0.68 19.67 -0.64 19.34 -2 19 C-2 18.01 -2 17.02 -2 16 C-2.99 15.67 -3.98 15.34 -5 15 C-4.51176372 9.14116461 -2.81041988 5.16754623 0 0 Z " fill="#FA7355" transform="translate(25,20)"/>
<path d="M0 0 C5.94 0 11.88 0 18 0 C18.33 0.66 18.66 1.32 19 2 C21.01669827 3.13350534 21.01669827 3.13350534 23 4 C22.67 5.32 22.34 6.64 22 8 C13.42 8 4.84 8 -4 8 C-4.33 6.68 -4.66 5.36 -5 4 C-4.360625 3.71125 -3.72125 3.4225 -3.0625 3.125 C-0.84793921 2.17176549 -0.84793921 2.17176549 0 0 Z " fill="#F8B837" transform="translate(24,54)"/>
<path d="M0 0 C0.55349121 0.48699371 1.10698242 0.97398743 1.67724609 1.47573853 C4.43280913 3.28402246 5.89613548 3.37954426 9.1640625 3.38818359 C10.19192871 3.39764008 11.21979492 3.40709656 12.27880859 3.4168396 C13.93517334 3.40773056 13.93517334 3.40773056 15.625 3.3984375 C16.76404785 3.40130768 17.9030957 3.40417786 19.07666016 3.40713501 C21.48405454 3.4091758 23.8914655 3.40364493 26.29882812 3.39111328 C29.98605387 3.37506072 33.6721834 3.39096238 37.359375 3.41015625 C39.69791909 3.40817382 42.0364625 3.40433016 44.375 3.3984375 C45.47924316 3.40451019 46.58348633 3.41058289 47.72119141 3.4168396 C48.74905762 3.40738312 49.77692383 3.39792664 50.8359375 3.38818359 C51.73876465 3.38579681 52.6415918 3.38341003 53.57177734 3.38095093 C56.44479728 2.93021812 57.84065155 1.89992018 60 0 C59.6875 2.375 59.6875 2.375 59 5 C55.72337419 7.1844172 54.74989642 7.25531106 50.94946289 7.2746582 C49.92152115 7.28419022 48.89357941 7.29372223 47.83448792 7.30354309 C46.72508347 7.30263168 45.61567902 7.30172028 44.47265625 7.30078125 C42.76196205 7.30720894 42.76196205 7.30720894 41.01670837 7.31376648 C38.60334945 7.31951289 36.1899732 7.32000777 33.77661133 7.31567383 C30.08059177 7.31251546 26.38537358 7.33596469 22.68945312 7.36132812 C20.34635518 7.3636012 18.00325508 7.36430458 15.66015625 7.36328125 C13.99908592 7.37709587 13.99908592 7.37709587 12.30445862 7.39118958 C11.27336472 7.38496078 10.24227081 7.37873199 9.17993164 7.37231445 C8.27408829 7.37294388 7.36824493 7.3735733 6.43495178 7.3742218 C3.46883913 6.91836718 2.08617156 6.14899123 0 4 C0 2.68 0 1.36 0 0 Z " fill="#6664E8" transform="translate(3,47)"/>
<path d="M0 0 C1.07128647 -0.00953201 2.14257294 -0.01906403 3.24632263 -0.02888489 C4.40777298 -0.02797348 5.56922333 -0.02706207 6.76586914 -0.02612305 C7.95451065 -0.03040817 9.14315216 -0.0346933 10.36781311 -0.03910828 C12.88550173 -0.04485998 15.40320697 -0.04534569 17.92089844 -0.04101562 C21.78161879 -0.03785767 25.64157187 -0.06129862 29.50219727 -0.08666992 C31.94425359 -0.08894294 34.38631198 -0.0896464 36.82836914 -0.08862305 C37.98779526 -0.09783279 39.14722137 -0.10704254 40.34178162 -0.11653137 C41.95343956 -0.10718819 41.95343956 -0.10718819 43.59765625 -0.09765625 C44.5442662 -0.09828568 45.49087616 -0.0989151 46.46617126 -0.0995636 C49.25908743 0.33640458 50.13534155 1.09505432 51.86352539 3.2746582 C51.53352539 4.2646582 51.20352539 5.2546582 50.86352539 6.2746582 C50.20352539 5.6146582 49.54352539 4.9546582 48.86352539 4.2746582 C46.4994605 3.96132429 46.4994605 3.96132429 43.72705078 4 C42.12012108 3.98570198 42.12012108 3.98570198 40.48072815 3.97111511 C39.3192778 3.97202652 38.15782745 3.97293793 36.96118164 3.97387695 C35.17821938 3.96744926 35.17821938 3.96744926 33.35923767 3.96089172 C30.84154905 3.95514002 28.32384381 3.95465431 25.80615234 3.95898438 C21.94543199 3.96214233 18.08547891 3.93870138 14.22485352 3.91333008 C11.7827972 3.91105706 9.3407388 3.9103536 6.89868164 3.91137695 C5.73925552 3.90216721 4.57982941 3.89295746 3.38526917 3.88346863 C1.77361122 3.89281181 1.77361122 3.89281181 0.12939453 3.90234375 C-0.81721542 3.90171432 -1.76382538 3.9010849 -2.73912048 3.9004364 C-5.53203665 4.33640458 -6.40829077 5.09505432 -8.13647461 7.2746582 C-7.21285415 1.42506194 -5.93941954 0.02893298 0 0 Z " fill="#9C9CF9" transform="translate(11.136474609375,3.725341796875)"/>
<path d="M0 0 C1.08152344 -0.02578125 2.16304687 -0.0515625 3.27734375 -0.078125 C4.19644531 0.03015625 5.11554687 0.1384375 6.0625 0.25 C8.0625 3.25 8.0625 3.25 8.0625 6.25 C2.7825 6.25 -2.4975 6.25 -7.9375 6.25 C-6.59016926 -0.48665368 -6.37714457 0.09099374 0 0 Z " fill="#8F81E8" transform="translate(32.9375,20.75)"/>
<path d="M0 0 C5.94 0 11.88 0 18 0 C18.33 1.32 18.66 2.64 19 4 C12.4 4 5.8 4 -1 4 C-0.67 2.68 -0.34 1.36 0 0 Z " fill="#F0B02E" transform="translate(24,54)"/>
<path d="M0 0 C0.33 0.66 0.66 1.32 1 2 C0.34 2 -0.32 2 -1 2 C-1.33 3.32 -1.66 4.64 -2 6 C-3.32 5.67 -4.64 5.34 -6 5 C-6 4.01 -6 3.02 -6 2 C-9.3 2 -12.6 2 -16 2 C-16.33 3.32 -16.66 4.64 -17 6 C-18.32 5.67 -19.64 5.34 -21 5 C-21 4.01 -21 3.02 -21 2 C-21.66 1.67 -22.32 1.34 -23 1 C-15.41 0.67 -7.82 0.34 0 0 Z " fill="#F05543" transform="translate(44,34)"/>
<path d="M0 0 C1.98 0 3.96 0 6 0 C6 1.98 6 3.96 6 6 C5.34 6 4.68 6 4 6 C3.34 7.32 2.68 8.64 2 10 C0.35 10 -1.3 10 -3 10 C-1.68 9.34 -0.36 8.68 1 8 C1 7.34 1 6.68 1 6 C0.67 5.67 0.34 5.34 0 5 C-0.04063832 3.33382885 -0.042721 1.66611905 0 0 Z " fill="#E9E2EC" transform="translate(46,15)"/>
<path d="M0 0 C0.99 0.33 1.98 0.66 3 1 C2.34 2.65 1.68 4.3 1 6 C6.28 6 11.56 6 17 6 C17 6.33 17 6.66 17 7 C16.13117187 7.06058594 15.26234375 7.12117188 14.3671875 7.18359375 C13.21476562 7.26738281 12.06234375 7.35117187 10.875 7.4375 C9.16957031 7.55931641 9.16957031 7.55931641 7.4296875 7.68359375 C4.2459522 7.97730965 1.14489093 8.43124313 -2 9 C-2 5.61976483 -1.12544378 3.16531063 0 0 Z " fill="#E6747C" transform="translate(24,21)"/>
<path d="M0 0 C1.98 0 3.96 0 6 0 C6 1.32 6 2.64 6 4 C4.02 4 2.04 4 0 4 C0 2.68 0 1.36 0 0 Z " fill="#894C47" transform="translate(30,30)"/>
<path d="M0 0 C5.28 0 10.56 0 16 0 C16.66 1.98 17.32 3.96 18 6 C17.34 6 16.68 6 16 6 C15.81695312 5.35546875 15.63390625 4.7109375 15.4453125 4.046875 C14.09188105 1.62555056 14.09188105 1.62555056 10.7421875 1.390625 C8.82792969 1.32101563 8.82792969 1.32101563 6.875 1.25 C4.95300781 1.16492188 4.95300781 1.16492188 2.9921875 1.078125 C2.00476563 1.05234375 1.01734375 1.0265625 0 1 C0 0.67 0 0.34 0 0 Z " fill="#F97870" transform="translate(25,20)"/>
<path d="M0 0 C1.98 0 3.96 0 6 0 C6 1.65 6 3.3 6 5 C4.35 4.67 2.7 4.34 1 4 C0.67 2.68 0.34 1.36 0 0 Z " fill="#E9DDDD" transform="translate(14,15)"/>
<path d="M0 0 C0.33 0.66 0.66 1.32 1 2 C3.01669827 3.13350534 3.01669827 3.13350534 5 4 C5 4.66 5 5.32 5 6 C6.32 6.66 7.64 7.32 9 8 C7.35 8 5.7 8 4 8 C3.34 6.68 2.68 5.36 2 4 C1.34 4 0.68 4 0 4 C0 2.68 0 1.36 0 0 Z " fill="#E9E9FF" transform="translate(14,17)"/>
<path d="M0 0 C1.65 0 3.3 0 5 0 C4.67 1.32 4.34 2.64 4 4 C2.68 3.67 1.36 3.34 0 3 C0 2.01 0 1.02 0 0 Z " fill="#635757" transform="translate(38,36)"/>
<path d="M0 0 C1.65 0 3.3 0 5 0 C4.67 1.32 4.34 2.64 4 4 C2.68 3.67 1.36 3.34 0 3 C0 2.01 0 1.02 0 0 Z " fill="#635757" transform="translate(23,36)"/>
<path d="M0 0 C2 2 2 2 2 5 C0.02 5 -1.96 5 -4 5 C-2.68 3.35 -1.36 1.7 0 0 Z " fill="#978FF0" transform="translate(39,22)"/>
<path d="M0 0 C0.99 0.33 1.98 0.66 3 1 C1.25 3.0625 1.25 3.0625 -1 5 C-3.25 4.75 -3.25 4.75 -5 4 C-2.6875 1.9375 -2.6875 1.9375 0 0 Z " fill="#7B7BF7" transform="translate(36,22)"/>
</svg>
